{"title":"Kid Ink, Rich Homie Quan - Ride Out [Music Video] 1080p [Sbyky]","uid":11720937,"size":90137277,"categoryP":"video","categoryS":"music_videos","magnet":"?xt=urn:btih:b49682d7965ad7e69cfda6a46628c3516faf07b6&amp;dn=Kid+Ink%2C+Rich+Homie+Quan+-+Ride+Out+%5BMusic+Video%5D+1080p+%5BSbyky%5D&amp;tr=udp%3A%2F%2Ftracker.openbittorrent.com%3A80&amp;tr=udp%3A%2F%2Fopen.demonii.com%3A1337&amp;tr=udp%3A%2F%2Ftracker.coppersurfer.tk%3A6969&amp;tr=udp%3A%2F%2Fexodus.desync.com%3A6969","seeders":6,"leechers":0,"uploader":"Sbyky","files":1,"time":1424811631,"description":"General\nComplete name                            : Kid Ink, Tyga, Wale, YG, Rich Homie Quan - Ride Out [Music Video] 1080p [Sbyky].mp4\nFormat                                   : MPEG-4\nFormat profile                           : Base Media\nCodec ID                                 : isom\nFile size                                : 86.0 MiB\nDuration                                 : 3mn 32s\nOverall bit rate mode                    : Variable\nOverall bit rate                         : 3 389 Kbps\nEncoded date                             : UTC 2015-02-20 08:04:10\nTagged date                              : UTC 2015-02-20 08:04:10\n\nVideo\nID                                       : 1\nFormat                                   : AVC\nFormat/Info                              : Advanced Video Codec\nFormat profile                           : &lt;a class=&quot;__cf_email__&quot; href=&quot;/cdn-cgi/l/email-protection&quot; data-cfemail=&quot;eba3828c83aba7dfc5db&quot;&gt;[email&amp;#160;protected]&lt;/a&gt;&lt;script cf-hash='f9e31' type=&quot;text/javascript&quot;&gt;\n/* &lt;![CDATA[ */!function(){try{var t=&quot;currentScript&quot;in document?document.currentScript:function(){for(var t=document.getElementsByTagName(&quot;script&quot;),e=t.length;e--;)if(t[e].getAttribute(&quot;cf-hash&quot;))return t[e]}();if(t&amp;&amp;t.previousSibling){var e,r,n,i,c=t.previousSibling,a=c.getAttribute(&quot;data-cfemail&quot;);if(a){for(e=&quot;&quot;,r=parseInt(a.substr(0,2),16),n=2;a.length-n;n+=2)i=parseInt(a.substr(n,2),16)^r,e+=String.fromCharCode(i);e=document.createTextNode(e),c.parentNode.replaceChild(e,c)}}}catch(u){}}();/* ]]&gt; */&lt;/script&gt;\nFormat settings, CABAC                   : Yes\nFormat settings, ReFrames                : 3 frames\nCodec ID                                 : avc1\nCodec ID/Info                            : Advanced Video Coding\nDuration                                 : 3mn 32s\nBit rate                                 : 3 261 Kbps\nWidth                                    : 1 920 pixels\nHeight                                   : 1 080 pixels\nDisplay aspect ratio                     : 16:9\nFrame rate mode                          : Variable\nFrame rate                               : 23.976 fps\nMinimum frame rate                       : 23.974 fps\nMaximum frame rate                       : 23.981 fps\nColor space                              : YUV\nChroma subsampling                       : 4:2:0\nBit depth                                : 8 bits\nScan type                                : Progressive\nBits/(Pixel*Frame)                       : 0.066\nStream size                              : 82.7 MiB (96%)\nEncoded date                             : UTC 2015-02-20 08:04:10\nTagged date                              : UTC 2015-02-20 08:04:10\n\nAudio\nID                                       : 2\nFormat                                   : AAC\nFormat/Info                              : Advanced Audio Codec\nFormat profile                           : LC\nCodec ID                                 : 40\nDuration                                 : 3mn 32s\nBit rate mode                            : Variable\nBit rate                                 : 126 Kbps\nChannel(s)                               : 2 channels\nChannel positions                        : Front: L R\nSampling rate                            : 44.1 KHz\nCompression mode                         : Lossy\nStream size                              : 3.19 MiB (4%)\nEncoded date                             : UTC 2015-02-20 07:58:14\nTagged date                              : UTC 2015-02-20 07:58:14\n\nShared By Sbyky","torrent":{"xt":"urn:btih:b49682d7965ad7e69cfda6a46628c3516faf07b6","amp;dn":"Kid+Ink%2C+Rich+Homie+Quan+-+Ride+Out+%5BMusic+Video%5D+1080p+%5BSbyky%5D","amp;tr":["udp%3A%2F%2Ftracker.openbittorrent.com%3A80","udp%3A%2F%2Fopen.demonii.com%3A1337","udp%3A%2F%2Ftracker.coppersurfer.tk%3A6969","udp%3A%2F%2Fexodus.desync.com%3A6969"],"infoHash":"b49682d7965ad7e69cfda6a46628c3516faf07b6","infoHashBuffer":{"type":"Buffer","data":[180,150,130,215,150,90,215,230,156,253,166,164,102,40,195,81,111,175,7,182]},"announce":[],"urlList":[]}}